  0
SECTION
  2
BLOCKS
  0
ENDSEC
  0
SECTION
  2
ENTITIES
  0
LINE
  8
0
 10
30.18
 20
128.5
 11
0
 21
128.5
  0
LINE
  8
0
 10
0
 20
128.5
 11
0
 21
0
  0
LINE
  8
0
 10
0
 20
0
 11
30.18
 21
0
  0
LINE
  8
0
 10
30.18
 20
0
 11
30.18
 21
128.5
  0
LINE
  8
0
 10
6.59999
 20
123.9
 11
6.59999
 21
123.909
  0
LINE
  8
0
 10
6.59999
 20
123.909
 11
6.43275
 21
123.909
  0
LINE
  8
0
 10
6.43275
 20
123.909
 11
6.10556
 21
123.978
  0
LINE
  8
0
 10
6.10556
 20
123.978
 11
5.79999
 21
124.114
  0
LINE
  8
0
 10
5.79999
 20
124.114
 11
5.52939
 21
124.311
  0
LINE
  8
0
 10
5.52939
 20
124.311
 11
5.30557
 21
124.56
  0
LINE
  8
0
 10
5.30557
 20
124.56
 11
5.13832
 21
124.849
  0
LINE
  8
0
 10
5.13832
 20
124.849
 11
5.03496
 21
125.167
  0
LINE
  8
0
 10
5.03496
 20
125.167
 11
5
 21
125.5
  0
LINE
  8
0
 10
5
 20
125.5
 11
5.03496
 21
125.833
  0
LINE
  8
0
 10
5.03496
 20
125.833
 11
5.13832
 21
126.151
  0
LINE
  8
0
 10
5.13832
 20
126.151
 11
5.30557
 21
126.44
  0
LINE
  8
0
 10
5.30557
 20
126.44
 11
5.52939
 21
126.689
  0
LINE
  8
0
 10
5.52939
 20
126.689
 11
5.79999
 21
126.886
  0
LINE
  8
0
 10
5.79999
 20
126.886
 11
6.10556
 21
127.022
  0
LINE
  8
0
 10
6.10556
 20
127.022
 11
6.43275
 21
127.091
  0
LINE
  8
0
 10
6.43275
 20
127.091
 11
6.59999
 21
127.091
  0
LINE
  8
0
 10
6.59999
 20
127.091
 11
6.59999
 21
127.1
  0
LINE
  8
0
 10
6.59999
 20
127.1
 11
8.39999
 21
127.1
  0
LINE
  8
0
 10
8.39999
 20
127.1
 11
8.39999
 21
127.091
  0
LINE
  8
0
 10
8.39999
 20
127.091
 11
8.56725
 21
127.091
  0
LINE
  8
0
 10
8.56725
 20
127.091
 11
8.89442
 21
127.022
  0
LINE
  8
0
 10
8.89442
 20
127.022
 11
9.2
 21
126.886
  0
LINE
  8
0
 10
9.2
 20
126.886
 11
9.4706
 21
126.689
  0
LINE
  8
0
 10
9.4706
 20
126.689
 11
9.69441
 21
126.44
  0
LINE
  8
0
 10
9.69441
 20
126.44
 11
9.86166
 21
126.151
  0
LINE
  8
0
 10
9.86166
 20
126.151
 11
9.96503
 21
125.833
  0
LINE
  8
0
 10
9.96503
 20
125.833
 11
10
 21
125.5
  0
LINE
  8
0
 10
10
 20
125.5
 11
9.96503
 21
125.167
  0
LINE
  8
0
 10
9.96503
 20
125.167
 11
9.86166
 21
124.849
  0
LINE
  8
0
 10
9.86166
 20
124.849
 11
9.69441
 21
124.56
  0
LINE
  8
0
 10
9.69441
 20
124.56
 11
9.4706
 21
124.311
  0
LINE
  8
0
 10
9.4706
 20
124.311
 11
9.2
 21
124.114
  0
LINE
  8
0
 10
9.2
 20
124.114
 11
8.89442
 21
123.978
  0
LINE
  8
0
 10
8.89442
 20
123.978
 11
8.56725
 21
123.909
  0
LINE
  8
0
 10
8.56725
 20
123.909
 11
8.39999
 21
123.909
  0
LINE
  8
0
 10
8.39999
 20
123.909
 11
8.39999
 21
123.9
  0
LINE
  8
0
 10
8.39999
 20
123.9
 11
6.59999
 21
123.9
  0
LINE
  8
0
 10
7.27641
 20
107.016
 11
6.66295
 21
107.147
  0
LINE
  8
0
 10
6.66295
 20
107.147
 11
6.09
 21
107.402
  0
LINE
  8
0
 10
6.09
 20
107.402
 11
5.5826
 21
107.771
  0
LINE
  8
0
 10
5.5826
 20
107.771
 11
5.16295
 21
108.237
  0
LINE
  8
0
 10
5.16295
 20
108.237
 11
4.84935
 21
108.78
  0
LINE
  8
0
 10
4.84935
 20
108.78
 11
4.65555
 21
109.376
  0
LINE
  8
0
 10
4.65555
 20
109.376
 11
4.59
 21
110
  0
LINE
  8
0
 10
4.59
 20
110
 11
4.65555
 21
110.624
  0
LINE
  8
0
 10
4.65555
 20
110.624
 11
4.84935
 21
111.22
  0
LINE
  8
0
 10
4.84935
 20
111.22
 11
5.16295
 21
111.763
  0
LINE
  8
0
 10
5.16295
 20
111.763
 11
5.5826
 21
112.229
  0
LINE
  8
0
 10
5.5826
 20
112.229
 11
6.09
 21
112.598
  0
LINE
  8
0
 10
6.09
 20
112.598
 11
6.66295
 21
112.853
  0
LINE
  8
0
 10
6.66295
 20
112.853
 11
7.27641
 21
112.984
  0
LINE
  8
0
 10
7.27641
 20
112.984
 11
7.90358
 21
112.984
  0
LINE
  8
0
 10
7.90358
 20
112.984
 11
8.51704
 21
112.853
  0
LINE
  8
0
 10
8.51704
 20
112.853
 11
9.09
 21
112.598
  0
LINE
  8
0
 10
9.09
 20
112.598
 11
9.59738
 21
112.229
  0
LINE
  8
0
 10
9.59738
 20
112.229
 11
10.017
 21
111.763
  0
LINE
  8
0
 10
10.017
 20
111.763
 11
10.3306
 21
111.22
  0
LINE
  8
0
 10
10.3306
 20
111.22
 11
10.5244
 21
110.624
  0
LINE
  8
0
 10
10.5244
 20
110.624
 11
10.59
 21
110
  0
LINE
  8
0
 10
10.59
 20
110
 11
10.5244
 21
109.376
  0
LINE
  8
0
 10
10.5244
 20
109.376
 11
10.3306
 21
108.78
  0
LINE
  8
0
 10
10.3306
 20
108.78
 11
10.017
 21
108.237
  0
LINE
  8
0
 10
10.017
 20
108.237
 11
9.59738
 21
107.771
  0
LINE
  8
0
 10
9.59738
 20
107.771
 11
9.09
 21
107.402
  0
LINE
  8
0
 10
9.09
 20
107.402
 11
8.51704
 21
107.147
  0
LINE
  8
0
 10
8.51704
 20
107.147
 11
7.90358
 21
107.016
  0
LINE
  8
0
 10
7.90358
 20
107.016
 11
7.27641
 21
107.016
  0
LINE
  8
0
 10
22.4564
 20
107.016
 11
21.8429
 21
107.147
  0
LINE
  8
0
 10
21.8429
 20
107.147
 11
21.27
 21
107.402
  0
LINE
  8
0
 10
21.27
 20
107.402
 11
20.7626
 21
107.771
  0
LINE
  8
0
 10
20.7626
 20
107.771
 11
20.3429
 21
108.237
  0
LINE
  8
0
 10
20.3429
 20
108.237
 11
20.0294
 21
108.78
  0
LINE
  8
0
 10
20.0294
 20
108.78
 11
19.8356
 21
109.376
  0
LINE
  8
0
 10
19.8356
 20
109.376
 11
19.77
 21
110
  0
LINE
  8
0
 10
19.77
 20
110
 11
19.8356
 21
110.624
  0
LINE
  8
0
 10
19.8356
 20
110.624
 11
20.0294
 21
111.22
  0
LINE
  8
0
 10
20.0294
 20
111.22
 11
20.3429
 21
111.763
  0
LINE
  8
0
 10
20.3429
 20
111.763
 11
20.7626
 21
112.229
  0
LINE
  8
0
 10
20.7626
 20
112.229
 11
21.27
 21
112.598
  0
LINE
  8
0
 10
21.27
 20
112.598
 11
21.8429
 21
112.853
  0
LINE
  8
0
 10
21.8429
 20
112.853
 11
22.4564
 21
112.984
  0
LINE
  8
0
 10
22.4564
 20
112.984
 11
23.0836
 21
112.984
  0
LINE
  8
0
 10
23.0836
 20
112.984
 11
23.697
 21
112.853
  0
LINE
  8
0
 10
23.697
 20
112.853
 11
24.27
 21
112.598
  0
LINE
  8
0
 10
24.27
 20
112.598
 11
24.7774
 21
112.229
  0
LINE
  8
0
 10
24.7774
 20
112.229
 11
25.197
 21
111.763
  0
LINE
  8
0
 10
25.197
 20
111.763
 11
25.5106
 21
111.22
  0
LINE
  8
0
 10
25.5106
 20
111.22
 11
25.7044
 21
110.624
  0
LINE
  8
0
 10
25.7044
 20
110.624
 11
25.77
 21
110
  0
LINE
  8
0
 10
25.77
 20
110
 11
25.7044
 21
109.376
  0
LINE
  8
0
 10
25.7044
 20
109.376
 11
25.5106
 21
108.78
  0
LINE
  8
0
 10
25.5106
 20
108.78
 11
25.197
 21
108.237
  0
LINE
  8
0
 10
25.197
 20
108.237
 11
24.7774
 21
107.771
  0
LINE
  8
0
 10
24.7774
 20
107.771
 11
24.27
 21
107.402
  0
LINE
  8
0
 10
24.27
 20
107.402
 11
23.697
 21
107.147
  0
LINE
  8
0
 10
23.697
 20
107.147
 11
23.0836
 21
107.016
  0
LINE
  8
0
 10
23.0836
 20
107.016
 11
22.4564
 21
107.016
  0
LINE
  8
0
 10
22.5348
 20
89.429
 11
22.0747
 21
89.5268
  0
LINE
  8
0
 10
22.0747
 20
89.5268
 11
21.645
 21
89.7181
  0
LINE
  8
0
 10
21.645
 20
89.7181
 11
21.2645
 21
89.9946
  0
LINE
  8
0
 10
21.2645
 20
89.9946
 11
20.9497
 21
90.3441
  0
LINE
  8
0
 10
20.9497
 20
90.3441
 11
20.7145
 21
90.7515
  0
LINE
  8
0
 10
20.7145
 20
90.7515
 11
20.5692
 21
91.1989
  0
LINE
  8
0
 10
20.5692
 20
91.1989
 11
20.52
 21
91.6667
  0
LINE
  8
0
 10
20.52
 20
91.6667
 11
20.5692
 21
92.1345
  0
LINE
  8
0
 10
20.5692
 20
92.1345
 11
20.7145
 21
92.5818
  0
LINE
  8
0
 10
20.7145
 20
92.5818
 11
20.9497
 21
92.9892
  0
LINE
  8
0
 10
20.9497
 20
92.9892
 11
21.2645
 21
93.3387
  0
LINE
  8
0
 10
21.2645
 20
93.3387
 11
21.645
 21
93.6152
  0
LINE
  8
0
 10
21.645
 20
93.6152
 11
22.0747
 21
93.8065
  0
LINE
  8
0
 10
22.0747
 20
93.8065
 11
22.5348
 21
93.9043
  0
LINE
  8
0
 10
22.5348
 20
93.9043
 11
23.0052
 21
93.9043
  0
LINE
  8
0
 10
23.0052
 20
93.9043
 11
23.4653
 21
93.8065
  0
LINE
  8
0
 10
23.4653
 20
93.8065
 11
23.895
 21
93.6152
  0
LINE
  8
0
 10
23.895
 20
93.6152
 11
24.2755
 21
93.3387
  0
LINE
  8
0
 10
24.2755
 20
93.3387
 11
24.5903
 21
92.9892
  0
LINE
  8
0
 10
24.5903
 20
92.9892
 11
24.8255
 21
92.5818
  0
LINE
  8
0
 10
24.8255
 20
92.5818
 11
24.9708
 21
92.1345
  0
LINE
  8
0
 10
24.9708
 20
92.1345
 11
25.02
 21
91.6667
  0
LINE
  8
0
 10
25.02
 20
91.6667
 11
24.9708
 21
91.1989
  0
LINE
  8
0
 10
24.9708
 20
91.1989
 11
24.8255
 21
90.7515
  0
LINE
  8
0
 10
24.8255
 20
90.7515
 11
24.5903
 21
90.3441
  0
LINE
  8
0
 10
24.5903
 20
90.3441
 11
24.2755
 21
89.9946
  0
LINE
  8
0
 10
24.2755
 20
89.9946
 11
23.895
 21
89.7181
  0
LINE
  8
0
 10
23.895
 20
89.7181
 11
23.4653
 21
89.5268
  0
LINE
  8
0
 10
23.4653
 20
89.5268
 11
23.0052
 21
89.429
  0
LINE
  8
0
 10
23.0052
 20
89.429
 11
22.5348
 21
89.429
  0
LINE
  8
0
 10
7.3548
 20
89.429
 11
6.8947
 21
89.5268
  0
LINE
  8
0
 10
6.8947
 20
89.5268
 11
6.465
 21
89.7181
  0
LINE
  8
0
 10
6.465
 20
89.7181
 11
6.08444
 21
89.9946
  0
LINE
  8
0
 10
6.08444
 20
89.9946
 11
5.7697
 21
90.3441
  0
LINE
  8
0
 10
5.7697
 20
90.3441
 11
5.53452
 21
90.7515
  0
LINE
  8
0
 10
5.53452
 20
90.7515
 11
5.38916
 21
91.1989
  0
LINE
  8
0
 10
5.38916
 20
91.1989
 11
5.34
 21
91.6667
  0
LINE
  8
0
 10
5.34
 20
91.6667
 11
5.38916
 21
92.1345
  0
LINE
  8
0
 10
5.38916
 20
92.1345
 11
5.53452
 21
92.5818
  0
LINE
  8
0
 10
5.53452
 20
92.5818
 11
5.7697
 21
92.9892
  0
LINE
  8
0
 10
5.7697
 20
92.9892
 11
6.08444
 21
93.3387
  0
LINE
  8
0
 10
6.08444
 20
93.3387
 11
6.465
 21
93.6152
  0
LINE
  8
0
 10
6.465
 20
93.6152
 11
6.8947
 21
93.8065
  0
LINE
  8
0
 10
6.8947
 20
93.8065
 11
7.3548
 21
93.9043
  0
LINE
  8
0
 10
7.3548
 20
93.9043
 11
7.82518
 21
93.9043
  0
LINE
  8
0
 10
7.82518
 20
93.9043
 11
8.28528
 21
93.8065
  0
LINE
  8
0
 10
8.28528
 20
93.8065
 11
8.715
 21
93.6152
  0
LINE
  8
0
 10
8.715
 20
93.6152
 11
9.09554
 21
93.3387
  0
LINE
  8
0
 10
9.09554
 20
93.3387
 11
9.41028
 21
92.9892
  0
LINE
  8
0
 10
9.41028
 20
92.9892
 11
9.64546
 21
92.5818
  0
LINE
  8
0
 10
9.64546
 20
92.5818
 11
9.79082
 21
92.1345
  0
LINE
  8
0
 10
9.79082
 20
92.1345
 11
9.84
 21
91.6667
  0
LINE
  8
0
 10
9.84
 20
91.6667
 11
9.79082
 21
91.1989
  0
LINE
  8
0
 10
9.79082
 20
91.1989
 11
9.64546
 21
90.7515
  0
LINE
  8
0
 10
9.64546
 20
90.7515
 11
9.41028
 21
90.3441
  0
LINE
  8
0
 10
9.41028
 20
90.3441
 11
9.09554
 21
89.9946
  0
LINE
  8
0
 10
9.09554
 20
89.9946
 11
8.715
 21
89.7181
  0
LINE
  8
0
 10
8.715
 20
89.7181
 11
8.28528
 21
89.5268
  0
LINE
  8
0
 10
8.28528
 20
89.5268
 11
7.82518
 21
89.429
  0
LINE
  8
0
 10
7.82518
 20
89.429
 11
7.3548
 21
89.429
  0
LINE
  8
0
 10
20.0294
 20
74.5535
 11
20.3429
 21
75.0967
  0
LINE
  8
0
 10
20.3429
 20
75.0967
 11
20.7626
 21
75.5628
  0
LINE
  8
0
 10
20.7626
 20
75.5628
 11
21.27
 21
75.9314
  0
LINE
  8
0
 10
21.27
 20
75.9314
 11
21.8429
 21
76.1865
  0
LINE
  8
0
 10
21.8429
 20
76.1865
 11
22.4564
 21
76.3169
  0
LINE
  8
0
 10
22.4564
 20
76.3169
 11
23.0836
 21
76.3169
  0
LINE
  8
0
 10
23.0836
 20
76.3169
 11
23.697
 21
76.1865
  0
LINE
  8
0
 10
23.697
 20
76.1865
 11
24.27
 21
75.9314
  0
LINE
  8
0
 10
24.27
 20
75.9314
 11
24.7774
 21
75.5628
  0
LINE
  8
0
 10
24.7774
 20
75.5628
 11
25.197
 21
75.0967
  0
LINE
  8
0
 10
25.197
 20
75.0967
 11
25.5106
 21
74.5535
  0
LINE
  8
0
 10
25.5106
 20
74.5535
 11
25.7044
 21
73.9571
  0
LINE
  8
0
 10
25.7044
 20
73.9571
 11
25.77
 21
73.3333
  0
LINE
  8
0
 10
25.77
 20
73.3333
 11
25.7044
 21
72.7096
  0
LINE
  8
0
 10
25.7044
 20
72.7096
 11
25.5106
 21
72.1131
  0
LINE
  8
0
 10
25.5106
 20
72.1131
 11
25.197
 21
71.57
  0
LINE
  8
0
 10
25.197
 20
71.57
 11
24.7774
 21
71.1039
  0
LINE
  8
0
 10
24.7774
 20
71.1039
 11
24.27
 21
70.7353
  0
LINE
  8
0
 10
24.27
 20
70.7353
 11
23.697
 21
70.4802
  0
LINE
  8
0
 10
23.697
 20
70.4802
 11
23.0836
 21
70.3498
  0
LINE
  8
0
 10
23.0836
 20
70.3498
 11
22.4564
 21
70.3498
  0
LINE
  8
0
 10
22.4564
 20
70.3498
 11
21.8429
 21
70.4802
  0
LINE
  8
0
 10
21.8429
 20
70.4802
 11
21.27
 21
70.7353
  0
LINE
  8
0
 10
21.27
 20
70.7353
 11
20.7626
 21
71.1039
  0
LINE
  8
0
 10
20.7626
 20
71.1039
 11
20.3429
 21
71.57
  0
LINE
  8
0
 10
20.3429
 20
71.57
 11
20.0294
 21
72.1131
  0
LINE
  8
0
 10
20.0294
 20
72.1131
 11
19.8356
 21
72.7096
  0
LINE
  8
0
 10
19.8356
 20
72.7096
 11
19.77
 21
73.3333
  0
LINE
  8
0
 10
19.77
 20
73.3333
 11
19.8356
 21
73.9571
  0
LINE
  8
0
 10
19.8356
 20
73.9571
 11
20.0294
 21
74.5535
  0
LINE
  8
0
 10
22.4041
 20
51.5192
 11
21.6884
 21
51.6713
  0
LINE
  8
0
 10
21.6884
 20
51.6713
 11
21.02
 21
51.9689
  0
LINE
  8
0
 10
21.02
 20
51.9689
 11
20.428
 21
52.399
  0
LINE
  8
0
 10
20.428
 20
52.399
 11
19.9384
 21
52.9427
  0
LINE
  8
0
 10
19.9384
 20
52.9427
 11
19.5726
 21
53.5764
  0
LINE
  8
0
 10
19.5726
 20
53.5764
 11
19.3465
 21
54.2723
  0
LINE
  8
0
 10
19.3465
 20
54.2723
 11
19.27
 21
55
  0
LINE
  8
0
 10
19.27
 20
55
 11
19.3465
 21
55.7277
  0
LINE
  8
0
 10
19.3465
 20
55.7277
 11
19.5726
 21
56.4236
  0
LINE
  8
0
 10
19.5726
 20
56.4236
 11
19.9384
 21
57.0572
  0
LINE
  8
0
 10
19.9384
 20
57.0572
 11
20.428
 21
57.601
  0
LINE
  8
0
 10
20.428
 20
57.601
 11
21.02
 21
58.0311
  0
LINE
  8
0
 10
21.02
 20
58.0311
 11
21.6884
 21
58.3287
  0
LINE
  8
0
 10
21.6884
 20
58.3287
 11
22.4041
 21
58.4808
  0
LINE
  8
0
 10
22.4041
 20
58.4808
 11
23.1358
 21
58.4808
  0
LINE
  8
0
 10
23.1358
 20
58.4808
 11
23.8515
 21
58.3287
  0
LINE
  8
0
 10
23.8515
 20
58.3287
 11
24.52
 21
58.0311
  0
LINE
  8
0
 10
24.52
 20
58.0311
 11
25.112
 21
57.601
  0
LINE
  8
0
 10
25.112
 20
57.601
 11
25.6015
 21
57.0572
  0
LINE
  8
0
 10
25.6015
 20
57.0572
 11
25.9674
 21
56.4236
  0
LINE
  8
0
 10
25.9674
 20
56.4236
 11
26.1935
 21
55.7277
  0
LINE
  8
0
 10
26.1935
 20
55.7277
 11
26.27
 21
55
  0
LINE
  8
0
 10
26.27
 20
55
 11
26.1935
 21
54.2723
  0
LINE
  8
0
 10
26.1935
 20
54.2723
 11
25.9674
 21
53.5764
  0
LINE
  8
0
 10
25.9674
 20
53.5764
 11
25.6015
 21
52.9427
  0
LINE
  8
0
 10
25.6015
 20
52.9427
 11
25.112
 21
52.399
  0
LINE
  8
0
 10
25.112
 20
52.399
 11
24.52
 21
51.9689
  0
LINE
  8
0
 10
24.52
 20
51.9689
 11
23.8515
 21
51.6713
  0
LINE
  8
0
 10
23.8515
 20
51.6713
 11
23.1358
 21
51.5192
  0
LINE
  8
0
 10
23.1358
 20
51.5192
 11
22.4041
 21
51.5192
  0
LINE
  8
0
 10
7.22414
 20
51.5192
 11
6.50844
 21
51.6713
  0
LINE
  8
0
 10
6.50844
 20
51.6713
 11
5.84
 21
51.9689
  0
LINE
  8
0
 10
5.84
 20
51.9689
 11
5.24803
 21
52.399
  0
LINE
  8
0
 10
5.24803
 20
52.399
 11
4.75844
 21
52.9427
  0
LINE
  8
0
 10
4.75844
 20
52.9427
 11
4.39258
 21
53.5764
  0
LINE
  8
0
 10
4.39258
 20
53.5764
 11
4.16647
 21
54.2723
  0
LINE
  8
0
 10
4.16647
 20
54.2723
 11
4.09
 21
55
  0
LINE
  8
0
 10
4.09
 20
55
 11
4.16647
 21
55.7277
  0
LINE
  8
0
 10
4.16647
 20
55.7277
 11
4.39258
 21
56.4236
  0
LINE
  8
0
 10
4.39258
 20
56.4236
 11
4.75844
 21
57.0572
  0
LINE
  8
0
 10
4.75844
 20
57.0572
 11
5.24803
 21
57.601
  0
LINE
  8
0
 10
5.24803
 20
57.601
 11
5.84
 21
58.0311
  0
LINE
  8
0
 10
5.84
 20
58.0311
 11
6.50844
 21
58.3287
  0
LINE
  8
0
 10
6.50844
 20
58.3287
 11
7.22414
 21
58.4808
  0
LINE
  8
0
 10
7.22414
 20
58.4808
 11
7.95584
 21
58.4808
  0
LINE
  8
0
 10
7.95584
 20
58.4808
 11
8.67155
 21
58.3287
  0
LINE
  8
0
 10
8.67155
 20
58.3287
 11
9.34
 21
58.0311
  0
LINE
  8
0
 10
9.34
 20
58.0311
 11
9.93195
 21
57.601
  0
LINE
  8
0
 10
9.93195
 20
57.601
 11
10.4216
 21
57.0572
  0
LINE
  8
0
 10
10.4216
 20
57.0572
 11
10.7874
 21
56.4236
  0
LINE
  8
0
 10
10.7874
 20
56.4236
 11
11.0135
 21
55.7277
  0
LINE
  8
0
 10
11.0135
 20
55.7277
 11
11.09
 21
55
  0
LINE
  8
0
 10
11.09
 20
55
 11
11.0135
 21
54.2723
  0
LINE
  8
0
 10
11.0135
 20
54.2723
 11
10.7874
 21
53.5764
  0
LINE
  8
0
 10
10.7874
 20
53.5764
 11
10.4216
 21
52.9427
  0
LINE
  8
0
 10
10.4216
 20
52.9427
 11
9.93195
 21
52.399
  0
LINE
  8
0
 10
9.93195
 20
52.399
 11
9.34
 21
51.9689
  0
LINE
  8
0
 10
9.34
 20
51.9689
 11
8.67155
 21
51.6713
  0
LINE
  8
0
 10
8.67155
 20
51.6713
 11
7.95584
 21
51.5192
  0
LINE
  8
0
 10
7.95584
 20
51.5192
 11
7.22414
 21
51.5192
  0
LINE
  8
0
 10
22.4564
 20
33.6831
 11
21.8429
 21
33.8135
  0
LINE
  8
0
 10
21.8429
 20
33.8135
 11
21.27
 21
34.0686
  0
LINE
  8
0
 10
21.27
 20
34.0686
 11
20.7626
 21
34.4372
  0
LINE
  8
0
 10
20.7626
 20
34.4372
 11
20.3429
 21
34.9033
  0
LINE
  8
0
 10
20.3429
 20
34.9033
 11
20.0294
 21
35.4465
  0
LINE
  8
0
 10
20.0294
 20
35.4465
 11
19.8356
 21
36.0429
  0
LINE
  8
0
 10
19.8356
 20
36.0429
 11
19.77
 21
36.6667
  0
LINE
  8
0
 10
19.77
 20
36.6667
 11
19.8356
 21
37.2904
  0
LINE
  8
0
 10
19.8356
 20
37.2904
 11
20.0294
 21
37.8869
  0
LINE
  8
0
 10
20.0294
 20
37.8869
 11
20.3429
 21
38.43
  0
LINE
  8
0
 10
20.3429
 20
38.43
 11
20.7626
 21
38.8961
  0
LINE
  8
0
 10
20.7626
 20
38.8961
 11
21.27
 21
39.2647
  0
LINE
  8
0
 10
21.27
 20
39.2647
 11
21.8429
 21
39.5198
  0
LINE
  8
0
 10
21.8429
 20
39.5198
 11
22.4564
 21
39.6502
  0
LINE
  8
0
 10
22.4564
 20
39.6502
 11
23.0836
 21
39.6502
  0
LINE
  8
0
 10
23.0836
 20
39.6502
 11
23.697
 21
39.5198
  0
LINE
  8
0
 10
23.697
 20
39.5198
 11
24.27
 21
39.2647
  0
LINE
  8
0
 10
24.27
 20
39.2647
 11
24.7774
 21
38.8961
  0
LINE
  8
0
 10
24.7774
 20
38.8961
 11
25.197
 21
38.43
  0
LINE
  8
0
 10
25.197
 20
38.43
 11
25.5106
 21
37.8869
  0
LINE
  8
0
 10
25.5106
 20
37.8869
 11
25.7044
 21
37.2904
  0
LINE
  8
0
 10
25.7044
 20
37.2904
 11
25.77
 21
36.6667
  0
LINE
  8
0
 10
25.77
 20
36.6667
 11
25.7044
 21
36.0429
  0
LINE
  8
0
 10
25.7044
 20
36.0429
 11
25.5106
 21
35.4465
  0
LINE
  8
0
 10
25.5106
 20
35.4465
 11
25.197
 21
34.9033
  0
LINE
  8
0
 10
25.197
 20
34.9033
 11
24.7774
 21
34.4372
  0
LINE
  8
0
 10
24.7774
 20
34.4372
 11
24.27
 21
34.0686
  0
LINE
  8
0
 10
24.27
 20
34.0686
 11
23.697
 21
33.8135
  0
LINE
  8
0
 10
23.697
 20
33.8135
 11
23.0836
 21
33.6831
  0
LINE
  8
0
 10
23.0836
 20
33.6831
 11
22.4564
 21
33.6831
  0
LINE
  8
0
 10
7.27641
 20
33.6831
 11
6.66295
 21
33.8135
  0
LINE
  8
0
 10
6.66295
 20
33.8135
 11
6.09
 21
34.0686
  0
LINE
  8
0
 10
6.09
 20
34.0686
 11
5.5826
 21
34.4372
  0
LINE
  8
0
 10
5.5826
 20
34.4372
 11
5.16295
 21
34.9033
  0
LINE
  8
0
 10
5.16295
 20
34.9033
 11
4.84935
 21
35.4465
  0
LINE
  8
0
 10
4.84935
 20
35.4465
 11
4.65555
 21
36.0429
  0
LINE
  8
0
 10
4.65555
 20
36.0429
 11
4.59
 21
36.6667
  0
LINE
  8
0
 10
4.59
 20
36.6667
 11
4.65555
 21
37.2904
  0
LINE
  8
0
 10
4.65555
 20
37.2904
 11
4.84935
 21
37.8869
  0
LINE
  8
0
 10
4.84935
 20
37.8869
 11
5.16295
 21
38.43
  0
LINE
  8
0
 10
5.16295
 20
38.43
 11
5.5826
 21
38.8961
  0
LINE
  8
0
 10
5.5826
 20
38.8961
 11
6.09
 21
39.2647
  0
LINE
  8
0
 10
6.09
 20
39.2647
 11
6.66295
 21
39.5198
  0
LINE
  8
0
 10
6.66295
 20
39.5198
 11
7.27641
 21
39.6502
  0
LINE
  8
0
 10
7.27641
 20
39.6502
 11
7.90358
 21
39.6502
  0
LINE
  8
0
 10
7.90358
 20
39.6502
 11
8.51704
 21
39.5198
  0
LINE
  8
0
 10
8.51704
 20
39.5198
 11
9.09
 21
39.2647
  0
LINE
  8
0
 10
9.09
 20
39.2647
 11
9.59738
 21
38.8961
  0
LINE
  8
0
 10
9.59738
 20
38.8961
 11
10.017
 21
38.43
  0
LINE
  8
0
 10
10.017
 20
38.43
 11
10.3306
 21
37.8869
  0
LINE
  8
0
 10
10.3306
 20
37.8869
 11
10.5244
 21
37.2904
  0
LINE
  8
0
 10
10.5244
 20
37.2904
 11
10.59
 21
36.6667
  0
LINE
  8
0
 10
10.59
 20
36.6667
 11
10.5244
 21
36.0429
  0
LINE
  8
0
 10
10.5244
 20
36.0429
 11
10.3306
 21
35.4465
  0
LINE
  8
0
 10
10.3306
 20
35.4465
 11
10.017
 21
34.9033
  0
LINE
  8
0
 10
10.017
 20
34.9033
 11
9.59738
 21
34.4372
  0
LINE
  8
0
 10
9.59738
 20
34.4372
 11
9.09
 21
34.0686
  0
LINE
  8
0
 10
9.09
 20
34.0686
 11
8.51704
 21
33.8135
  0
LINE
  8
0
 10
8.51704
 20
33.8135
 11
7.90358
 21
33.6831
  0
LINE
  8
0
 10
7.90358
 20
33.6831
 11
7.27641
 21
33.6831
  0
LINE
  8
0
 10
7.27641
 20
15.3498
 11
6.66295
 21
15.4802
  0
LINE
  8
0
 10
6.66295
 20
15.4802
 11
6.09
 21
15.7352
  0
LINE
  8
0
 10
6.09
 20
15.7352
 11
5.5826
 21
16.1039
  0
LINE
  8
0
 10
5.5826
 20
16.1039
 11
5.16295
 21
16.57
  0
LINE
  8
0
 10
5.16295
 20
16.57
 11
4.84935
 21
17.1131
  0
LINE
  8
0
 10
4.84935
 20
17.1131
 11
4.65555
 21
17.7096
  0
LINE
  8
0
 10
4.65555
 20
17.7096
 11
4.59
 21
18.3333
  0
LINE
  8
0
 10
4.59
 20
18.3333
 11
4.65555
 21
18.9571
  0
LINE
  8
0
 10
4.65555
 20
18.9571
 11
4.84935
 21
19.5535
  0
LINE
  8
0
 10
4.84935
 20
19.5535
 11
5.16295
 21
20.0967
  0
LINE
  8
0
 10
5.16295
 20
20.0967
 11
5.5826
 21
20.5628
  0
LINE
  8
0
 10
5.5826
 20
20.5628
 11
6.09
 21
20.9314
  0
LINE
  8
0
 10
6.09
 20
20.9314
 11
6.66295
 21
21.1865
  0
LINE
  8
0
 10
6.66295
 20
21.1865
 11
7.27641
 21
21.3169
  0
LINE
  8
0
 10
7.27641
 20
21.3169
 11
7.90358
 21
21.3169
  0
LINE
  8
0
 10
7.90358
 20
21.3169
 11
8.51704
 21
21.1865
  0
LINE
  8
0
 10
8.51704
 20
21.1865
 11
9.09
 21
20.9314
  0
LINE
  8
0
 10
9.09
 20
20.9314
 11
9.59738
 21
20.5628
  0
LINE
  8
0
 10
9.59738
 20
20.5628
 11
10.017
 21
20.0967
  0
LINE
  8
0
 10
10.017
 20
20.0967
 11
10.3306
 21
19.5535
  0
LINE
  8
0
 10
10.3306
 20
19.5535
 11
10.5244
 21
18.9571
  0
LINE
  8
0
 10
10.5244
 20
18.9571
 11
10.59
 21
18.3333
  0
LINE
  8
0
 10
10.59
 20
18.3333
 11
10.5244
 21
17.7096
  0
LINE
  8
0
 10
10.5244
 20
17.7096
 11
10.3306
 21
17.1131
  0
LINE
  8
0
 10
10.3306
 20
17.1131
 11
10.017
 21
16.57
  0
LINE
  8
0
 10
10.017
 20
16.57
 11
9.59738
 21
16.1039
  0
LINE
  8
0
 10
9.59738
 20
16.1039
 11
9.09
 21
15.7352
  0
LINE
  8
0
 10
9.09
 20
15.7352
 11
8.51704
 21
15.4802
  0
LINE
  8
0
 10
8.51704
 20
15.4802
 11
7.90358
 21
15.3498
  0
LINE
  8
0
 10
7.90358
 20
15.3498
 11
7.27641
 21
15.3498
  0
LINE
  8
0
 10
22.4564
 20
15.3498
 11
21.8429
 21
15.4802
  0
LINE
  8
0
 10
21.8429
 20
15.4802
 11
21.27
 21
15.7352
  0
LINE
  8
0
 10
21.27
 20
15.7352
 11
20.7626
 21
16.1039
  0
LINE
  8
0
 10
20.7626
 20
16.1039
 11
20.3429
 21
16.57
  0
LINE
  8
0
 10
20.3429
 20
16.57
 11
20.0294
 21
17.1131
  0
LINE
  8
0
 10
20.0294
 20
17.1131
 11
19.8356
 21
17.7096
  0
LINE
  8
0
 10
19.8356
 20
17.7096
 11
19.77
 21
18.3333
  0
LINE
  8
0
 10
19.77
 20
18.3333
 11
19.8356
 21
18.9571
  0
LINE
  8
0
 10
19.8356
 20
18.9571
 11
20.0294
 21
19.5535
  0
LINE
  8
0
 10
20.0294
 20
19.5535
 11
20.3429
 21
20.0967
  0
LINE
  8
0
 10
20.3429
 20
20.0967
 11
20.7626
 21
20.5628
  0
LINE
  8
0
 10
20.7626
 20
20.5628
 11
21.27
 21
20.9314
  0
LINE
  8
0
 10
21.27
 20
20.9314
 11
21.8429
 21
21.1865
  0
LINE
  8
0
 10
21.8429
 20
21.1865
 11
22.4564
 21
21.3169
  0
LINE
  8
0
 10
22.4564
 20
21.3169
 11
23.0836
 21
21.3169
  0
LINE
  8
0
 10
23.0836
 20
21.3169
 11
23.697
 21
21.1865
  0
LINE
  8
0
 10
23.697
 20
21.1865
 11
24.27
 21
20.9314
  0
LINE
  8
0
 10
24.27
 20
20.9314
 11
24.7774
 21
20.5628
  0
LINE
  8
0
 10
24.7774
 20
20.5628
 11
25.197
 21
20.0967
  0
LINE
  8
0
 10
25.197
 20
20.0967
 11
25.5106
 21
19.5535
  0
LINE
  8
0
 10
25.5106
 20
19.5535
 11
25.7044
 21
18.9571
  0
LINE
  8
0
 10
25.7044
 20
18.9571
 11
25.77
 21
18.3333
  0
LINE
  8
0
 10
25.77
 20
18.3333
 11
25.7044
 21
17.7096
  0
LINE
  8
0
 10
25.7044
 20
17.7096
 11
25.5106
 21
17.1131
  0
LINE
  8
0
 10
25.5106
 20
17.1131
 11
25.197
 21
16.57
  0
LINE
  8
0
 10
25.197
 20
16.57
 11
24.7774
 21
16.1039
  0
LINE
  8
0
 10
24.7774
 20
16.1039
 11
24.27
 21
15.7352
  0
LINE
  8
0
 10
24.27
 20
15.7352
 11
23.697
 21
15.4802
  0
LINE
  8
0
 10
23.697
 20
15.4802
 11
23.0836
 21
15.3498
  0
LINE
  8
0
 10
23.0836
 20
15.3498
 11
22.4564
 21
15.3498
  0
LINE
  8
0
 10
21.78
 20
1.39999
 11
21.78
 21
1.40875
  0
LINE
  8
0
 10
21.78
 20
1.40875
 11
21.6127
 21
1.40875
  0
LINE
  8
0
 10
21.6127
 20
1.40875
 11
21.2856
 21
1.4783
  0
LINE
  8
0
 10
21.2856
 20
1.4783
 11
20.98
 21
1.61435
  0
LINE
  8
0
 10
20.98
 20
1.61435
 11
20.7094
 21
1.81096
  0
LINE
  8
0
 10
20.7094
 20
1.81096
 11
20.4856
 21
2.05954
  0
LINE
  8
0
 10
20.4856
 20
2.05954
 11
20.3183
 21
2.34921
  0
LINE
  8
0
 10
20.3183
 20
2.34921
 11
20.215
 21
2.66733
  0
LINE
  8
0
 10
20.215
 20
2.66733
 11
20.18
 21
3
  0
LINE
  8
0
 10
20.18
 20
3
 11
20.215
 21
3.33266
  0
LINE
  8
0
 10
20.215
 20
3.33266
 11
20.3183
 21
3.65077
  0
LINE
  8
0
 10
20.3183
 20
3.65077
 11
20.4856
 21
3.94044
  0
LINE
  8
0
 10
20.4856
 20
3.94044
 11
20.7094
 21
4.18903
  0
LINE
  8
0
 10
20.7094
 20
4.18903
 11
20.98
 21
4.38564
  0
LINE
  8
0
 10
20.98
 20
4.38564
 11
21.2856
 21
4.52168
  0
LINE
  8
0
 10
21.2856
 20
4.52168
 11
21.6127
 21
4.59123
  0
LINE
  8
0
 10
21.6127
 20
4.59123
 11
21.78
 21
4.59123
  0
LINE
  8
0
 10
21.78
 20
4.59123
 11
21.78
 21
4.59999
  0
LINE
  8
0
 10
21.78
 20
4.59999
 11
23.58
 21
4.59999
  0
LINE
  8
0
 10
23.58
 20
4.59999
 11
23.58
 21
4.59123
  0
LINE
  8
0
 10
23.58
 20
4.59123
 11
23.7472
 21
4.59123
  0
LINE
  8
0
 10
23.7472
 20
4.59123
 11
24.0744
 21
4.52168
  0
LINE
  8
0
 10
24.0744
 20
4.52168
 11
24.38
 21
4.38564
  0
LINE
  8
0
 10
24.38
 20
4.38564
 11
24.6506
 21
4.18903
  0
LINE
  8
0
 10
24.6506
 20
4.18903
 11
24.8744
 21
3.94044
  0
LINE
  8
0
 10
24.8744
 20
3.94044
 11
25.0417
 21
3.65077
  0
LINE
  8
0
 10
25.0417
 20
3.65077
 11
25.145
 21
3.33266
  0
LINE
  8
0
 10
25.145
 20
3.33266
 11
25.18
 21
3
  0
LINE
  8
0
 10
25.18
 20
3
 11
25.145
 21
2.66733
  0
LINE
  8
0
 10
25.145
 20
2.66733
 11
25.0417
 21
2.34921
  0
LINE
  8
0
 10
25.0417
 20
2.34921
 11
24.8744
 21
2.05954
  0
LINE
  8
0
 10
24.8744
 20
2.05954
 11
24.6506
 21
1.81096
  0
LINE
  8
0
 10
24.6506
 20
1.81096
 11
24.38
 21
1.61435
  0
LINE
  8
0
 10
24.38
 20
1.61435
 11
24.0744
 21
1.4783
  0
LINE
  8
0
 10
24.0744
 20
1.4783
 11
23.7472
 21
1.40875
  0
LINE
  8
0
 10
23.7472
 20
1.40875
 11
23.58
 21
1.40875
  0
LINE
  8
0
 10
23.58
 20
1.40875
 11
23.58
 21
1.39999
  0
LINE
  8
0
 10
23.58
 20
1.39999
 11
21.78
 21
1.39999
  0
LINE
  8
0
 10
10.3306
 20
72.1131
 11
10.017
 21
71.57
  0
LINE
  8
0
 10
10.017
 20
71.57
 11
9.59738
 21
71.1039
  0
LINE
  8
0
 10
9.59738
 20
71.1039
 11
9.09
 21
70.7353
  0
LINE
  8
0
 10
9.09
 20
70.7353
 11
8.51704
 21
70.4802
  0
LINE
  8
0
 10
8.51704
 20
70.4802
 11
7.90358
 21
70.3498
  0
LINE
  8
0
 10
7.90358
 20
70.3498
 11
7.27641
 21
70.3498
  0
LINE
  8
0
 10
7.27641
 20
70.3498
 11
6.66295
 21
70.4802
  0
LINE
  8
0
 10
6.66295
 20
70.4802
 11
6.09
 21
70.7353
  0
LINE
  8
0
 10
6.09
 20
70.7353
 11
5.5826
 21
71.1039
  0
LINE
  8
0
 10
5.5826
 20
71.1039
 11
5.16295
 21
71.57
  0
LINE
  8
0
 10
5.16295
 20
71.57
 11
4.84935
 21
72.1131
  0
LINE
  8
0
 10
4.84935
 20
72.1131
 11
4.65555
 21
72.7096
  0
LINE
  8
0
 10
4.65555
 20
72.7096
 11
4.59
 21
73.3333
  0
LINE
  8
0
 10
4.59
 20
73.3333
 11
4.65555
 21
73.9571
  0
LINE
  8
0
 10
4.65555
 20
73.9571
 11
4.84935
 21
74.5535
  0
LINE
  8
0
 10
4.84935
 20
74.5535
 11
5.16295
 21
75.0967
  0
LINE
  8
0
 10
5.16295
 20
75.0967
 11
5.5826
 21
75.5628
  0
LINE
  8
0
 10
5.5826
 20
75.5628
 11
6.09
 21
75.9314
  0
LINE
  8
0
 10
6.09
 20
75.9314
 11
6.66295
 21
76.1865
  0
LINE
  8
0
 10
6.66295
 20
76.1865
 11
7.27641
 21
76.3169
  0
LINE
  8
0
 10
7.27641
 20
76.3169
 11
7.90358
 21
76.3169
  0
LINE
  8
0
 10
7.90358
 20
76.3169
 11
8.51704
 21
76.1865
  0
LINE
  8
0
 10
8.51704
 20
76.1865
 11
9.09
 21
75.9314
  0
LINE
  8
0
 10
9.09
 20
75.9314
 11
9.59738
 21
75.5628
  0
LINE
  8
0
 10
9.59738
 20
75.5628
 11
10.017
 21
75.0967
  0
LINE
  8
0
 10
10.017
 20
75.0967
 11
10.3306
 21
74.5535
  0
LINE
  8
0
 10
10.3306
 20
74.5535
 11
10.5244
 21
73.9571
  0
LINE
  8
0
 10
10.5244
 20
73.9571
 11
10.59
 21
73.3333
  0
LINE
  8
0
 10
10.59
 20
73.3333
 11
10.5244
 21
72.7096
  0
LINE
  8
0
 10
10.5244
 20
72.7096
 11
10.3306
 21
72.1131
  0
ENDSEC
  0
SECTION
  2
OBJECTS
  0
DICTIONARY
  0
ENDSEC
  0
EOF
